<svg xmlns="http://www.w3.org/2000/svg" version="1.1" xmlns:xlink="http://www.w3.org/1999/xlink" width="512" height="512" x="0" y="0" viewBox="0 0 512 512" style="enable-background:new 0 0 512 512" xml:space="preserve" class=""><g>
<path xmlns="http://www.w3.org/2000/svg" style="" d="M286.187,268.435L112.968,441.677c-6.875,6.876-18.021,6.876-24.897,0.001L45.214,398.82  c-6.874-6.874-6.875-18.02-0.001-24.894l117.914-117.939l-69.122-69.122l-48.79-48.79c-6.875-6.875-6.875-18.021,0-24.896  l42.857-42.857c6.875-6.875,18.021-6.875,24.896,0l116.543,116.543l56.675,56.675C293.06,250.414,293.061,261.56,286.187,268.435z" fill="#00d8de" data-original="#00d8de" class=""></path>
<path xmlns="http://www.w3.org/2000/svg" style="" d="M230.853,188.261L163.1,256.014l-25.897-25.897l-43.197-43.252l-48.79-48.79  c-6.875-6.875-6.875-18.021,0-24.896L88.07,70.325c6.876-6.876,18.025-6.875,24.899,0.003l91.987,92.035L230.853,188.261z" fill="#00a5ff" data-original="#00a5ff" class=""></path>
<polygon xmlns="http://www.w3.org/2000/svg" style="" points="230.853,188.261 163.1,256.014 146.67,239.557 214.422,171.804 " fill="#0087ff" data-original="#0087ff" class=""></polygon>
<path xmlns="http://www.w3.org/2000/svg" style="" d="M466.786,268.435L293.568,441.677c-6.875,6.876-18.022,6.876-24.897,0.001l-42.858-42.858  c-6.874-6.874-6.875-18.02-0.001-24.894l117.914-117.939l-69.122-69.122l-48.79-48.79c-6.875-6.875-6.875-18.021,0-24.896  l42.857-42.857c6.875-6.875,18.021-6.875,24.896,0L410.11,186.865l56.675,56.675C473.66,250.414,473.66,261.56,466.786,268.435z" fill="#00a5ff" data-original="#00a5ff" class=""></path>
<path xmlns="http://www.w3.org/2000/svg" style="" d="M411.452,188.261l-67.753,67.753l-25.897-25.897l-43.197-43.252l-48.79-48.79  c-6.875-6.875-6.875-18.021,0-24.896l42.854-42.854c6.876-6.876,18.025-6.875,24.899,0.003l91.987,92.035L411.452,188.261z" fill="#00d8de" data-original="#00d8de" class=""></path>
<g xmlns="http://www.w3.org/2000/svg">
	<polygon style="" points="411.452,188.261 343.699,256.014 327.269,239.557 395.022,171.804  " fill="#05c1c1" data-original="#05c1c1" class=""></polygon>
	
	
	
</g>
<g xmlns="http://www.w3.org/2000/svg">
	
	
	
</g>
<g xmlns="http://www.w3.org/2000/svg">
</g>
<g xmlns="http://www.w3.org/2000/svg">
</g>
<g xmlns="http://www.w3.org/2000/svg">
</g>
<g xmlns="http://www.w3.org/2000/svg">
</g>
<g xmlns="http://www.w3.org/2000/svg">
</g>
<g xmlns="http://www.w3.org/2000/svg">
</g>
<g xmlns="http://www.w3.org/2000/svg">
</g>
<g xmlns="http://www.w3.org/2000/svg">
</g>
<g xmlns="http://www.w3.org/2000/svg">
</g>
<g xmlns="http://www.w3.org/2000/svg">
</g>
<g xmlns="http://www.w3.org/2000/svg">
</g>
<g xmlns="http://www.w3.org/2000/svg">
</g>
<g xmlns="http://www.w3.org/2000/svg">
</g>
<g xmlns="http://www.w3.org/2000/svg">
</g>
<g xmlns="http://www.w3.org/2000/svg">
</g>
</g></svg>